/* XPM */
static char *result[] = {
/* columns rows colors chars-per-pixel */
"64 64 4 1 ",
"  c #3B3643",
". c #4E484A",
"X c #695953",
"o c #816855",
/* pixels */
"                                                                ",
"                                                                ",
"  ....  ....... ....... ....... ....... .......         .....   ",
" ...XXX.XXXXXXX.XXXXXXX.XXXXXXX.XXXXXXX.XXXXXXX..........XXX..  ",
"  .XXX...XXXXX...XXXXX...XXXXX...XXXXX...XXXXX...........XXXX.  ",
"   ..........................................................   ",
" . ...ooooo...XXXXX...ooooo...XXXXX...ooooo...XXXXX...ooooo..   ",
" ..X.ooooooo.XXXXXXX.ooooooo.XXXXXXX.ooooooo.XXXXXXX.ooooooo.   ",
" ..X.ooooXXX.XXXXXXX.ooooXXX.XXXXXXX.XXXXXXX.XXXXXXX.XXXoooo.   ",
" . ...ooooX...XXXXX...ooooX...XXXXX...XXXXX...XXXXX...XXooo..   ",
"   ..........................................................   ",
"  .XXXX...........XXXXX...........XXXXX...XXXXX...XXXXX...XXX.  ",
" ..XXXXX.........XXXXXXX.........XXXXXXX.XXXXXXX.XXXXXXX.XXXX.. ",
" ..XXXXX.....   .XXXXXXX.....    ..XXXXX.XXXXXXX ..XXXXX.XXXX.. ",
"  .XXXX......   ..XXXXX......     .XXXX...XXXXX.  .XXXX...XXX.  ",
"   ..........   .............      .............   ..........   ",
"   ..........................................................   ",
"  .XXX...ooooo...Xoooo...XXXXX...ooooo...XXXXX...ooooo...XXXX.  ",
"  .XXXX.ooooooo.XXXoooo.XXXXXXX.ooooooo.XXXXXXo.ooooooo.XXXXX.. ",
"  .XXXX.ooooooo.XXXXooo.XXXXXXX.ooooooo.XXXXXoo.ooooooo.XXXXX.. ",
"  .XXX...ooooo...XXXXo...XXXXX...ooooo...XXXoo...ooooo...XXXX.  ",
"   ..........................................................   ",
" .....XXXXX...XXXXX...oXXXX...XXXXX...XXXXX...XXXXX...XXooo..   ",
" ..X.XXXXXXX.XXXXXXX.oooXXXX.XXXXXXX.XXXXXXX.XXXXXXX.XXXoooo.   ",
" ..X.XXXoXXX.XXXXXXX.ooooXXX.XXXXXXX.XXXXXXX.XXXXXXX.XXXoooo.   ",
" .....XXooX...XXXXX...ooooX...XXXXX...XXXXX...XXXXX...XXooo..   ",
"   ..........................................................   ",
"  .XXXX...........XXXXX...........XXXXX...XXXXX...XXXXX......   ",
"  .XXXXX.........XXXXXXX.........XXXXXXX.XXXXXXX.XXXXXXX.....   ",
"  .XXXXX.....   .XXXXXXX.....    ..XXXXX.XXXXXXX ..XXXXX.....   ",
"  .XXXX......   ..XXXXX......     .XXXX...XXXXX.  .XXXX......   ",
"   ..........   .............      .............   ..........   ",
"   ..........   .............      .............   ..........   ",
"  .XXX...XXXX.  .XXXXX...XXXX.    .XXX...ooooo..  .XXX...XXXX.  ",
"  .XXXX.XXXXX.. XXXXXXX.XXXXX.. ...XXXX.ooooooo....XXXX.XXXXX.. ",
"  .XXXX.XXXXXXX.XXXXXXX.XXXXXXX.XXXXXXX.ooooooo.XXXXXXX.XXXXX.. ",
"  .XXX...XXXXX...XXXXX...XXXXX...XXXXX...ooooo...XXXXX...XXXX.  ",
"   ..........................................................   ",
" .....XXooo...XXXXX...ooooo...XXXXX...oXXXX...XXXXX...oXooo..   ",
" ..X.XXXoooo.XXXXXXX.ooooooo.XXXXXXX.oooXXXX.XXXXXXX.ooooooo.   ",
" ..X.XXXXXXX.XXXXXXX.ooooooo.XXXXXXX.ooooXXX.XXXXXXX.ooooooo.   ",
" .....XXXXX...XXXXX...ooooo...XXXXX...ooooX...XXXXX...ooooo..   ",
"   ..........................................................   ",
"  .XXXX...XXXXX...XXXXX...XXXXX...XXXXX...XXXXX...XXXXX......   ",
"  .XXXXX.XXXXXXX.XXXXXXX.XXXXXXX.XXXXXXX.XXXXXXX.XXXXXXX.....   ",
"  .XXXXX.XXXXXXX.XXXXXXX.XXXXXXX.XXXXXXX.XXXXXXX.XXXXXXX.....   ",
"  .XXXX...XXXXX...XXXXX...XXXXX...XXXXX...XXXXX...XXXXX......   ",
"   ..........................................................   ",
"   ..........   .............      .............   ..........   ",
"   ......XXXX.  .ooooo...XXXX.    .XXX...XXXXX..  .XXX...XXXX.  ",
"   .....XXXXX.. ooooooo.XXXXX.. ...XXXX.XXXXXXX....XXXX.XXXXX.. ",
"   .....XXXXXXX.ooooooo.XXXXXXX.XXXXXXX.XXXXXXX.XXXXXXX.XXXXX.. ",
"   ......XXXXX...ooooo...XXXXX...XXXXX...XXXXX...XXXXX...XXXX.  ",
"   ..........................................................   ",
"  ....ooooo...XXXXX...XXooo...XXXXX...oXXXX...XXXXX...oXXXX..   ",
"  .X.ooooooo.XXXXXXX.XXXoooo.XXXXXXX.oooXXXX.XXXXXXX.oooXXXX.   ",
"  .X.ooooooo.XXXXXXX.XXXXXXX.XXXXXXX.XXXXXXX.XXXXXXX.XXXXXXX.   ",
"  ....ooooo...XXXXX...XXXXX...XXXXX...XXXXX...XXXXX...XXXXX..   ",
"   ..........................................................   ",
"  .XXXX...XXXXX...XXXXX...........XXXXX...........XXXXX...XXX.  ",
"   .XXXX.XXXXXX..XXXXXXX.........XXXXXXX.........XXXXXXX.XXXX.  ",
"    .... ....... .......         .......         ....... .....  ",
"                                                                ",
"                                                                "
};
