/* XPM */
static char *result[] = {
/* columns rows colors chars-per-pixel */
"64 64 13 1 ",
"  c black",
". c #212722",
"X c #323C33",
"o c #2D4E29",
"O c #4A5D6C",
"+ c #AC3232",
"@ c #D87D7D",
"# c #6DE579",
"$ c #7E8387",
"% c #B6B6B6",
"& c #93F69D",
"* c white",
"= c None",
/* pixels */
"================================================================",
"================================================================",
"================================================================",
"================================================================",
"================================================================",
"================================================================",
"================================================================",
"================================================================",
"================================================================",
"================================================================",
"================================================================",
"================================================================",
"================================================================",
"================================================================",
"===================*************************====================",
"==================**                       **===================",
"==================* %%%%%% $$$$$$$$$$$$$$$O *===================",
"==================* %%%%%% $$$$$$$$$$$$$$$O *===================",
"==================* %%%%%% $$            $O *===================",
"==================* %%%%%% $$ .......... $O *===================",
"==================* %%  %% $$ .XXXXXXXX. $O *===================",
"==================* % %% $ $$ .XX&&X&&X. $O *===================",
"==================* % %$ $ $$ .XX##X##X. $O *===================",
"==================* % $$ $ $$ .XX&&X&&X. $O *===================",
"==================* % OO $ $$ .XXXXXXXX. $O *===================",
"==================* %%  $$ $$ .XXX#&#XX. $O *===================",
"==================* %%$$$% $$ .......... $O *===================",
"==================* %%%%%% $$            $O *===================",
"==================* %%%%%% $$$$$$$$$$$$$$OO *===================",
"==================* %%%%%% OOOOOOOOOOOOOOOO *===================",
"==================**                       **===================",
"===================**** @+ %%$$$$   O ******====================",
"======================* @+  %$$  % o  *=========================",
"======================*   %$   %%$ o  *=========================",
"======================* % $O %%%$O o  *=========================",
"======================* % OO %%%$O o  *=========================",
"======================* %$     %%$ o  *=========================",
"======================* %$ $%$$  % o  *=========================",
"======================* %$ %%$$$$   O *=========================",
"======================* %$ %%$$$$OOO$ *=========================",
"======================* %$ %%$$$$$$$$ *=========================",
"======================**   %%$$$$$$$$ *=========================",
"=======================*** %%$ $$$$$$ *=========================",
"=========================* %%$ OOOO$$ *=========================",
"=========================* %%$     %$ *=========================",
"=========================* %%$ *** %$ *=========================",
"=========================* %%$ *=* %O *=========================",
"=========================* %%$ *=* OO *=========================",
"=========================*     *=*    *=========================",
"=========================*******=******=========================",
"================================================================",
"================================================================",
"================================================================",
"================================================================",
"================================================================",
"================================================================",
"================================================================",
"================================================================",
"================================================================",
"================================================================",
"================================================================",
"================================================================",
"================================================================",
"================================================================"
};
