/* XPM */
static char *result[] = {
/* columns rows colors chars-per-pixel */
"64 64 241 2 ",
"   c #2F1A0D",
".  c #53321D",
"X  c #573622",
"o  c #593A27",
"O  c #5A3B28",
"+  c #5B3C29",
"@  c #5C3D2A",
"#  c #5D3E2A",
"$  c #5E3F2A",
"%  c #5E3F2B",
"&  c #5F402C",
"*  c #60402B",
"=  c #60412C",
"-  c #61412C",
";  c #60402D",
":  c #60412D",
">  c #61422D",
",  c #61422E",
"<  c #62422E",
"1  c #62432E",
"2  c #6A4A35",
"3  c #684B36",
"4  c #6D4B34",
"5  c #6C4B35",
"6  c #6E4C35",
"7  c #6F4C36",
"8  c #6A4D39",
"9  c #6E523F",
"0  c #74513A",
"q  c #6F5341",
"w  c #705340",
"e  c #725543",
"r  c #745643",
"t  c #775A45",
"y  c #775946",
"u  c #775B47",
"i  c #785A48",
"p  c #785C4A",
"a  c #7A5C4A",
"s  c #795E4A",
"d  c #795E4B",
"f  c #7A5E4A",
"g  c #7A5F4A",
"h  c #7A5F4B",
"j  c #7C5F4B",
"k  c #795D4C",
"l  c #7B5E4D",
"z  c #7B624E",
"x  c #7C604C",
"c  c #7C604D",
"v  c #7C624E",
"b  c #7E6352",
"n  c #7E6450",
"m  c #846552",
"M  c #896F5C",
"N  c #8B7565",
"B  c #8E7665",
"V  c #8C7E67",
"C  c #8C7E68",
"Z  c #8C7F69",
"A  c #8D7F69",
"S  c #8D7F6A",
"D  c #8D806A",
"F  c #8D816A",
"G  c #8D806B",
"H  c #8D816B",
"J  c #8E806A",
"K  c #8E816A",
"L  c #8E806B",
"P  c #8E816B",
"I  c #8E826B",
"U  c #8E816C",
"Y  c #8F816C",
"T  c #8F816D",
"R  c #8E826C",
"E  c #8F826C",
"W  c #8F826D",
"Q  c #8F836E",
"!  c #90826E",
"~  c #90836E",
"^  c #90836F",
"/  c #91846E",
"(  c #91846F",
")  c #908470",
"_  c #918470",
"`  c #908471",
"'  c #918471",
"]  c #918571",
"[  c #928570",
"{  c #928671",
"}  c #918572",
"|  c #928572",
" . c #928672",
".. c #938772",
"X. c #928673",
"o. c #938673",
"O. c #938773",
"+. c #938774",
"@. c #948873",
"#. c #968872",
"$. c #968973",
"%. c #978A73",
"&. c #948874",
"*. c #958974",
"=. c #948875",
"-. c #968975",
";. c #978A74",
":. c #968A75",
">. c #978A75",
",. c #958976",
"<. c #958977",
"1. c #958A77",
"2. c #978A76",
"3. c #968A77",
"4. c #978B77",
"5. c #998C77",
"6. c #968A78",
"7. c #968B78",
"8. c #978B78",
"9. c #968B79",
"0. c #978B79",
"q. c #978C79",
"w. c #978C7A",
"e. c #998C78",
"r. c #988D78",
"t. c #998D78",
"y. c #988C79",
"u. c #998D79",
"i. c #9A8E79",
"p. c #988C7A",
"a. c #988D7A",
"s. c #988D7B",
"d. c #998E7A",
"f. c #9A8E7A",
"g. c #9A8F7B",
"h. c #988D7C",
"j. c #998E7C",
"k. c #998E7D",
"l. c #998F7D",
"z. c #9A8F7C",
"x. c #9B8F7C",
"c. c #9A8F7D",
"v. c #9A8F7E",
"b. c #9A8F7F",
"n. c #9A907E",
"m. c #9B917E",
"M. c #9A907F",
"N. c #9B907F",
"B. c #46809E",
"V. c #48819F",
"C. c #548BA8",
"Z. c #70A1B4",
"A. c #9B9080",
"S. c #9B9181",
"D. c #9C9180",
"F. c #9C9181",
"G. c #9D9380",
"H. c #9C9281",
"J. c #9D9281",
"K. c #9D9381",
"L. c #9C9282",
"P. c #9D9282",
"I. c #9D9383",
"U. c #9E9382",
"Y. c #9E9383",
"T. c #9E9482",
"R. c #9E9483",
"E. c #9D9384",
"W. c #9E9384",
"Q. c #9E9485",
"!. c #9E9585",
"~. c #9E9684",
"^. c #9E9685",
"/. c #9F9685",
"(. c #9F9686",
"). c #9F9787",
"_. c #9F9688",
"`. c #9F9788",
"'. c #9F9689",
"]. c #A09686",
"[. c #A09689",
"{. c #A09889",
"}. c #A19989",
"|. c #A29989",
" X c #A0988A",
".X c #A1988A",
"XX c #A1998A",
"oX c #A1988B",
"OX c #A1998B",
"+X c #A19A8A",
"@X c #A39A8B",
"#X c #A1998C",
"$X c #A19A8C",
"%X c #A29A8D",
"&X c #A39B8D",
"*X c #A49C8D",
"=X c #A49C8E",
"-X c #A59D8F",
";X c #A69E90",
":X c #A79F91",
">X c #A7A091",
",X c #A8A090",
"<X c #A9A190",
"1X c #A8A091",
"2X c #A9A191",
"3X c #A9A192",
"4X c #A9A193",
"5X c #AAA193",
"6X c #AAA292",
"7X c #AAA293",
"8X c #AAA294",
"9X c #AAA295",
"0X c #ABA395",
"qX c #ABA396",
"wX c #ABA495",
"eX c #ACA495",
"rX c #ACA496",
"tX c #ACA497",
"yX c #ACA597",
"uX c #ADA597",
"iX c #ADA598",
"pX c #ADA698",
"aX c #ADA699",
"sX c #AEA699",
"dX c #AEA69A",
"fX c #AFA69A",
"gX c #AEA79A",
"hX c #AFA79A",
"jX c #AFA69B",
"kX c #AFA79B",
"lX c #AFA79C",
"zX c #B0A79B",
"xX c #B0A89B",
"cX c #B0A89C",
"vX c #B0A99C",
"bX c #B1A99C",
"nX c #B1A99D",
"mX c #B1A99E",
"MX c #B2AA9E",
"NX c #B7B0A5",
"BX c None",
/* pixels */
"BXBX8 8 8 8 8 8 8 8 8 8 8 8 8 8 8 8 8 BXBXBXBX8 8 8 8 8 8 8 8 8 8 8 8 8 8 8 8 8 BXBXBXBX8 8 8 8 8 8 8 8 8 8 8 8 8 8 8 8 8 BXBXBX",
"BX8 <X<X<X<X<X<X<X<X<X<X<X<X<X<X<X<X<X8 BXBX8 <X<X<X<X<X<X<X<X<X<X<X<X<X<X<X<X<X8 BXBX8 <X<X<X<X<X<X<X<X<X<X<X<X<X<X<X<X<X8 BXBX",
"8 dX2X<X2X<X2X2X<X<X<X<X<X<X1X1X1X1X,XhX8 8 dX2X<X2X<X2X2X<X<X<X<X<X<X1X1X1X1X,XhX8 8 dX2X<X2X<X2X2X<X<X<X<X<X<X1X1X1X1X,XhX8 BX",
"8 fX4X5X4X4X4X4X5X5X3X3X3X2X6X6X3X3X1XzX8 8 fX4X5X4X4X4X4X5X5X3X3X3X2X6X6X3X3X1XzX8 8 fX4X5X4X4X4X4X5X5X3X3X3X2X6X6X3X3X1XzX8 . ",
"8 jX8X7X8X9X9X9X9X9X8X8X8X8X8X8X8X7X7XxX8 8 jX8X7X8X9X9X9X9X9X8X8X8X8X8X8X8X7X7XxX8 8 jX8X7X8X9X9X9X9X9X8X8X8X8X8X8X8X7X7XxX8 . ",
"8 kX0X0X0XqXqXqXqXqXqXqXqXqXqXeXwX0X0XxX8 8 kX0X0X0XqXqXqXqXqXqXqXqXqXqXeXwX0X0XxX8 8 kX0X0X0XqXqXqXqXqXqXqXqXqXqXeXwX0X0XxX8 . ",
"8 kX0XqXqXtXtXtXtXtXtXtXtXqXrXrXrXrXrXcX8 8 kX0XqXqXtXtXtXtXtXtXtXtXqXrXrXrXrXrXcX8 8 kX0XqXqXtXtXtXtXtXtXtXtXqXrXrXrXrXrXcX8 . ",
"8 kXtXtXtXyXiXiXiXiXiXiXiXtXtXtXtXyXyXcX8 8 kXtXtXtXyXiXiXiXiXiXiXiXtXtXtXtXyXyXcX8 8 kXtXtXtXyXiXiXiXiXiXiXiXtXtXtXtXyXyXcX8 . ",
"8 kXtXyXtXyXiXiXiXiXiXiXiXiXiXtXtXyXyXvX8 8 kXtXyXtXyXiXiXiXiXiXiXiXiXiXtXtXyXyXvX8 8 kXtXyXtXyXiXiXiXiXiXiXiXiXiXtXtXyXyXvX8 . ",
"8 kXyXyXiXiXiXiXiXiXiXiXiXiXiXiXuXyXyXbX8 8 kXyXyXiXiXiXiXiXiXiXiXiXiXiXiXuXyXyXbX8 8 kXyXyXiXiXiXiXiXiXiXiXiXiXiXiXuXyXyXbX8 . ",
"8 lXiXiXiXM iXiXiXiXiXpXiXsXsXB sXiXiXnX8 8 lXiXiXiXM iXiXiXiXiXpXiXsXsXB sXiXiXnX8 8 lXiXiXiXM iXiXiXiXiXpXiXsXsXB sXiXiXnX8 . ",
"8 cXiXiXm %Xb iXiXiXiXiXiXsXm OXb sXpXnX8 8 cXiXiXm %Xb iXiXiXiXiXiXsXm OXb sXpXnX8 8 cXiXiXm %Xb iXiXiXiXiXiXsXm OXb sXpXnX8 . ",
"8 cXaXa $X$X$Xd iXiXiXiXsXa +X#XOXk dXnX8 8 cXaXa $X$X$Xd iXiXiXiXsXa +X#XOXk dXnX8 8 cXaXa $X$X$Xd iXiXiXiXsXa +X#XOXk dXnX8 . ",
"8 mXhXj OXN OXc iXiXiXgXgXl oXN XXp gXMX8 8 mXhXj OXN OXc iXiXiXgXgXl oXN XXp gXMX8 8 mXhXj OXN OXc iXiXiXgXgXl oXN XXp gXMX8 . ",
"3 mXi OXN N N  Xr nXnXnXq .XN N N {.w mX8 3 mXi OXN N N  Xr nXnXnXq .XN N N {.w mX8 3 mXi OXN N N  Xr nXnXnXq .XN N N {.w mX8 . ",
": ;Xy _._.'._._.y Y.W.W.e [.`.`.).`.9 >X; : ;Xy _._.'._._.y Y.W.W.e [.`.`.).`.9 >X; : ;Xy _._.'._._.y Y.W.W.e [.`.`.).`.9 >X; . ",
"1 -XS.F.D.D.F.F.H.P.P.P.P.P.U.R.Q.Q.!.:X1 1 -XS.F.D.D.F.F.H.P.P.P.P.P.U.R.Q.Q.!.:X1 1 -XS.F.D.D.F.F.H.P.P.P.P.P.U.R.Q.Q.!.:X1 . ",
"1 =XA.A.N.N.N.A.A.A.A.A.A.D.F.F.J.I.E.-X1 1 =XA.A.N.N.N.A.A.A.A.A.A.D.F.F.J.I.E.-X1 1 =XA.A.N.N.N.A.A.A.A.A.A.D.F.F.J.I.E.-X1 . ",
"> @Xb.b.v.v.v.n.b.b.b.M.b.N.N.A.D.H.L.=X1 > @Xb.b.v.v.v.n.b.b.b.M.b.N.N.A.D.H.L.=X1 > @Xb.b.v.v.v.n.b.b.b.M.b.N.N.A.D.H.L.=X1 . ",
"> |.v.z s u f h v k.k.c.z g t x x n M.=X1 > |.v.z s u f h v k.k.c.z g t x x n M.=X1 > |.v.z s u f h v k.k.c.z g t x x n M.=X1 . ",
"> ).k.k.NXV.B.NXh.j.j.j.j.NXV.B.NXl.l.*X1 > ).k.k.NXV.B.NXh.j.j.j.j.NXV.B.NXl.l.*X1 > ).k.k.NXV.B.NXh.j.j.j.j.NXV.B.NXl.l.*X1 . ",
"< ^.h.h.NXZ.C.NXs.s.s.s.s.NXZ.C.NXj.k.&X< < ^.h.h.NXZ.C.NXs.s.s.s.s.NXZ.C.NXj.k.&X< < ^.h.h.NXZ.C.NXs.s.s.s.s.NXZ.C.NXj.k.&X< . ",
", /.a.s.p.p.p.p.p.p.y.0.q.q.w.p.a.s.j.@X, , /.a.s.p.p.p.p.p.p.y.0.q.q.w.p.a.s.j.@X, , /.a.s.p.p.p.p.p.p.y.0.q.q.w.p.a.s.j.@X, . ",
"> ~.w.q.0.8.8.8.8.8.3.3.8.8.8.0.0.y.p.}.> > ~.w.q.0.8.8.8.8.8.3.3.8.8.8.0.0.y.p.}.> > ~.w.q.0.8.8.8.8.8.3.3.8.8.8.0.0.y.p.}.> . ",
"= K.8.8.8.8.8.7.7.3.0 3.3.3.3.7.9.0.0.(.= = K.8.8.8.8.8.7.7.3.0 3.3.3.3.7.9.0.0.(.= = K.8.8.8.8.8.7.7.3.0 3.3.3.3.7.9.0.0.(.= . ",
"= G.8.6.6.6.7.6.3.3.7 <.1.1.3.3.6.6.0.].= = G.8.6.6.6.7.6.3.3.7 <.1.1.3.3.6.6.0.].= = G.8.6.6.6.7.6.3.3.7 <.1.1.3.3.6.6.0.].= . ",
"* H.6.6.6.3.3.3.3.4 ,.6 ,.,.,.,.3.6.8./.= * H.6.6.6.3.3.3.3.4 ,.6 ,.,.,.,.3.6.8./.= * H.6.6.6.3.3.3.3.4 ,.6 ,.,.,.,.3.6.8./.= . ",
"% m.3.3.3.3.,.,.2 ,.,.,.5 ,.,.,.,.3.7.T.= % m.3.3.3.3.,.,.2 ,.,.,.5 ,.,.,.,.3.7.T.= % m.3.3.3.3.,.,.2 ,.,.,.5 ,.,.,.,.3.7.T.= . ",
"$ z.NXNX,.,.,.,.,.,.,.,.,.,.,.,.,.,.NXNX- $ z.NXNX,.,.,.,.,.,.,.,.,.,.,.,.,.,.NXNX- $ z.NXNX,.,.,.,.,.,.,.,.,.,.,.,.,.,.NXNX- . ",
"% g.NXNXNX=.=.=.=.=.=.=.=.=.=.,.,.NXNXNX- % g.NXNXNX=.=.=.=.=.=.=.=.=.=.,.,.NXNXNX- % g.NXNXNX=.=.=.=.=.=.=.=.=.=.,.,.NXNXNX- . ",
"$ f.NX=.NXNX+.+.+.+.+.+.+.+.+.=.NXNX=.NX- $ f.NX=.NXNX+.+.+.+.+.+.+.+.+.=.NXNX=.NX- $ f.NX=.NXNX+.+.+.+.+.+.+.+.+.=.NXNX=.NX- . ",
"% d.NXNX+.NXNXNXNX+.+.+.+.NXNXNXNX&.NXNX- % d.NXNX+.NXNXNXNX+.+.+.+.NXNXNXNX&.NXNX- % d.NXNX+.NXNXNXNX+.+.+.+.NXNXNXNX&.NXNX- . ",
"% d...NXo.O.+.+.+.NXNXNXNXO.O.O.+.+.NXx.- % d...NXo.O.+.+.+.NXNXNXNXO.O.O.+.+.NXx.- % d...NXo.O.+.+.+.NXNXNXNXO.O.O.+.+.NXx.- . ",
"# d.{ NX| X.X. . .X.X.X.X.X.X.o.o.O.NXi.: # d.{ NX| X.X. . .X.X.X.X.X.X.o.o.O.NXi.: # d.{ NX| X.X. . .X.X.X.X.X.X.o.o.O.NXi.: . ",
"# u.[ _ NX' ] ] ] }  . . . . .| | NX .u.: # u.[ _ NX' ] ] ] }  . . . . .| | NX .u.: # u.[ _ NX' ] ] ] }  . . . . .| | NX .u.: . ",
"@ r.^ ^ NXNX) ) ) ` ` ` ` ` ` ` NXNX[ e.= @ r.^ ^ NXNX) ) ) ` ` ` ` ` ` ` NXNX[ e.= @ r.^ ^ NXNX) ) ) ` ` ` ` ` ` ` NXNX[ e.= . ",
"+ 4.Q ^ ~ NXNXNXNXNXNXNXNXNXNXNXNX( / 5.= + 4.Q ^ ~ NXNXNXNXNXNXNXNXNXNXNXNX( / 5.= + 4.Q ^ ~ NXNXNXNXNXNXNXNXNXNXNXNX( / 5.= . ",
"+ 4.W W W W W W W W W W W W ~ ~ ~ ~ ! t.= + 4.W W W W W W W W W W W W ~ ~ ~ ~ ! t.= + 4.W W W W W W W W W W W W ~ ~ ~ ~ ! t.= . ",
"o 2.U I R W T T T T T T T W W W E R W >.& o 2.U I R W T T T T T T T W W W E R W >.& o 2.U I R W T T T T T T T W W W E R W >.& . ",
"o :.G H P P Y Y Y Y Y Y Y U Y E U U L ;.O o :.G H P P Y Y Y Y Y Y Y U Y E U U L ;.O o :.G H P P Y Y Y Y Y Y Y U Y E U U L ;.O . ",
"o -.D G H P P P P P P P P U P P L L J $.O o -.D G H P P P P P P P P U P P L L J $.O o -.D G H P P P P P P P P U P P L L J $.O . ",
"o *.A A S D F F K K K K J J J D S A Z #.O o *.A A S D F F K K K K J J J D S A Z #.O o *.A A S D F F K K K K J J J D S A Z #.O . ",
". @.A A A A A A A A S S S S A A A C V %.X . @.A A A A A A A A S S S S A A A C V %.X . @.A A A A A A A A S S S S A A A C V %.X . ",
". ` ` ` ` ` ` ` ` ` ` ` ` ` ` ` ` ` ` ` . . ` ` ` ` ` ` ` ` ` ` ` ` ` ` ` ` ` ` ` . . ` ` ` ` ` ` ` ` ` ` ` ` ` ` ` ` ` ` ` . . ",
". ` ` ` ` % ` ` ` ` ` ` ` ` ` ` % ` ` ` . . ` ` ` ` % ` ` ` ` ` ` ` ` ` ` % ` ` ` . . ` ` ` ` % ` ` ` ` ` ` ` ` ` ` % ` ` ` . . ",
". ` ` ` ` % ` ` ` ` ` ` ` ` ` ` % ` ` ` . . ` ` ` ` % ` ` ` ` ` ` ` ` ` ` % ` ` ` . . ` ` ` ` % ` ` ` ` ` ` ` ` ` ` % ` ` ` . . ",
". ` ` ` ` % ` ` ` ` ` ` ` ` ` ` % ` ` ` . . ` ` ` ` % ` ` ` ` ` ` ` ` ` ` % ` ` ` . . ` ` ` ` % ` ` ` ` ` ` ` ` ` ` % ` ` ` . . ",
". ` ` ` ` % ` ` ` ` ` ` ` ` ` ` % ` ` ` . . ` ` ` ` % ` ` ` ` ` ` ` ` ` ` % ` ` ` . . ` ` ` ` % ` ` ` ` ` ` ` ` ` ` % ` ` ` . . ",
". ` ` ` ` % ` ` ` ` ` ` ` ` ` ` % ` ` ` . . ` ` ` ` % ` ` ` ` ` ` ` ` ` ` % ` ` ` . . ` ` ` ` % ` ` ` ` ` ` ` ` ` ` % ` ` ` . . ",
". ` ` ` % % ` ` ` ` ` ` ` ` ` ` % % ` ` . . ` ` ` % % ` ` ` ` ` ` ` ` ` ` % % ` ` . . ` ` ` % % ` ` ` ` ` ` ` ` ` ` % % ` ` . . ",
". ` ` ` % ` ` ` ` ` ` ` ` ` ` ` ` % ` ` . . ` ` ` % ` ` ` ` ` ` ` ` ` ` ` ` % ` ` . . ` ` ` % ` ` ` ` ` ` ` ` ` ` ` ` % ` ` . . ",
". ` ` ` % ` ` ` ` ` ` ` ` ` ` ` ` % ` ` . . ` ` ` % ` ` ` ` ` ` ` ` ` ` ` ` % ` ` . . ` ` ` % ` ` ` ` ` ` ` ` ` ` ` ` % ` ` . . ",
". ` ` ` % ` ` ` ` ` ` ` ` ` ` ` ` % ` ` . . ` ` ` % ` ` ` ` ` ` ` ` ` ` ` ` % ` ` . . ` ` ` % ` ` ` ` ` ` ` ` ` ` ` ` % ` ` . . ",
". ` ` ` % ` ` ` ` ` ` ` ` ` ` ` ` % ` ` . . ` ` ` % ` ` ` ` ` ` ` ` ` ` ` ` % ` ` . . ` ` ` % ` ` ` ` ` ` ` ` ` ` ` ` % ` ` . . ",
". ` ` ` % % ` ` ` ` ` ` ` ` ` ` % % ` ` . . ` ` ` % % ` ` ` ` ` ` ` ` ` ` % % ` ` . . ` ` ` % % ` ` ` ` ` ` ` ` ` ` % % ` ` . . ",
". ` ` ` ` % ` ` ` ` ` ` ` ` ` ` % ` ` ` . . ` ` ` ` % ` ` ` ` ` ` ` ` ` ` % ` ` ` . . ` ` ` ` % ` ` ` ` ` ` ` ` ` ` % ` ` ` . . ",
". ` ` ` ` % ` ` ` ` ` ` ` ` ` ` % ` ` ` . . ` ` ` ` % ` ` ` ` ` ` ` ` ` ` % ` ` ` . . ` ` ` ` % ` ` ` ` ` ` ` ` ` ` % ` ` ` . . ",
". ` ` ` ` % % ` ` ` ` ` ` ` ` % % ` ` ` . . ` ` ` ` % % ` ` ` ` ` ` ` ` % % ` ` ` . . ` ` ` ` % % ` ` ` ` ` ` ` ` % % ` ` ` . . ",
". ` ` ` ` ` % % ` ` ` ` ` ` % % ` ` ` ` . . ` ` ` ` ` % % ` ` ` ` ` ` % % ` ` ` ` . . ` ` ` ` ` % % ` ` ` ` ` ` % % ` ` ` ` . . ",
". ` ` NX` ` ` % ` ` ` ` ` ` % ` ` ` NX` . . ` ` NX` ` ` % ` ` ` ` ` ` % ` ` ` NX` . . ` ` NX` ` ` % ` ` ` ` ` ` % ` ` ` NX` . . ",
". ` ` NX` ` NX% ` ` ` ` ` ` % NX` ` NX` . . ` ` NX` ` NX% ` ` ` ` ` ` % NX` ` NX` . . ` ` NX` ` NX% ` ` ` ` ` ` % NX` ` NX` . . ",
". ` ` NX` ` NX% ` ` ` ` ` ` % NX` ` NX` . . ` ` NX` ` NX% ` ` ` ` ` ` % NX` ` NX` . . ` ` NX` ` NX% ` ` ` ` ` ` % NX` ` NX` . . ",
". . . . . . . . . . . . . . . . . . . . . . . . . . . . . . . . . . . . . . . . . . . . . . . . . . . . . . . . . . . . . . . . ",
"BX                                      . .                                       . .                                       . BX"
};
